<svg width="180" height="50" viewBox="0 0 180 50" fill="none" xmlns="http://www.w3.org/2000/svg">
<g clip-path="url(#clip0_1_577)">
<path d="M0 30.8013V1.20783C0 0.669882 0.301409 0.357422 0.820329 0.357422H7.24313C7.67504 0.357422 8.01996 0.537811 8.23436 0.937244L13.4515 9.7441C13.582 10.0115 13.8399 10.0115 13.9704 9.7441L19.1907 0.937244C19.4051 0.53459 19.75 0.357422 20.1819 0.357422H26.6079C27.1268 0.357422 27.4282 0.669882 27.4282 1.20783V30.8013C27.4282 31.3393 27.1268 31.6517 26.6079 31.6517H20.1384C19.6195 31.6517 19.3181 31.3393 19.3181 30.8013V15.0205C19.3181 14.6629 19.0602 14.6178 18.8862 14.8852L16.2139 19.4883C15.9995 19.891 15.6546 20.0682 15.2227 20.0682H12.2055C11.7736 20.0682 11.4287 19.8878 11.2143 19.4883L8.54198 14.8852C8.36797 14.6178 8.11007 14.6629 8.11007 15.0205V30.8013C8.11007 31.3393 7.80866 31.6517 7.28974 31.6517H0.820329C0.301409 31.6517 0 31.3393 0 30.8013Z" fill="white"/>
<path d="M50.8417 7.55366H38.2509C38.0365 7.55366 37.906 7.68895 37.906 7.91122V11.8443C37.906 12.0666 38.0365 12.2019 38.2509 12.2019H45.926C46.4449 12.2019 46.7463 12.5144 46.7463 13.0523V18.5059C46.7463 19.0438 46.4449 19.3563 45.926 19.3563H38.2509C38.0365 19.3563 37.906 19.4916 37.906 19.7138V24.0947C37.906 24.317 38.0365 24.4523 38.2509 24.4523H50.8417C51.3607 24.4523 51.6621 24.7647 51.6621 25.3027V30.8013C51.6621 31.3393 51.3607 31.6517 50.8417 31.6517H30.6163C30.0974 31.6517 29.796 31.3393 29.796 30.8013V1.20783C29.796 0.669882 30.0974 0.357422 30.6163 0.357422H50.8417C51.3607 0.357422 51.6621 0.669882 51.6621 1.20783V6.70647C51.6621 7.24442 51.3607 7.55688 50.8417 7.55688V7.55366Z" fill="white"/>
<path d="M53.2129 30.8013V1.20783C53.2129 0.669882 53.5143 0.357422 54.0332 0.357422H64.943C72.0152 0.357422 76.7601 4.38074 76.7601 10.4173V21.5918C76.7601 27.6252 72.0152 31.6517 64.943 31.6517H54.0332C53.5143 31.6517 53.2129 31.3393 53.2129 30.8013ZM61.6648 24.4523H65.2444C67.1833 24.4523 68.5661 22.7547 68.65 20.1616V11.8476C68.65 9.25447 67.2703 7.55688 65.2009 7.55688H61.6648C61.4504 7.55688 61.3198 7.69217 61.3198 7.91444V24.0979C61.3198 24.3202 61.4504 24.4555 61.6648 24.4555V24.4523Z" fill="white"/>
<path d="M78.8292 30.8013V1.20783C78.8292 0.669882 79.1306 0.357422 79.6495 0.357422H86.119C86.6379 0.357422 86.9393 0.669882 86.9393 1.20783V30.8013C86.9393 31.3393 86.6379 31.6517 86.119 31.6517H79.6495C79.1306 31.6517 78.8292 31.3393 78.8292 30.8013Z" fill="white"/>
<path d="M88.8751 20.4742V11.445C88.8751 4.56127 93.62 0 100.776 0C107.932 0 112.677 4.29068 112.677 10.775C112.677 11.0424 112.419 11.2228 111.9 11.2679L105.431 11.7156C104.912 11.7607 104.567 11.6254 104.567 11.4934V11.226C104.567 8.8133 103.057 7.20268 100.773 7.20268C98.4891 7.20268 96.979 8.8133 96.979 11.226V20.8382C96.979 23.209 98.4891 24.8164 100.773 24.8164C103.057 24.8164 104.567 23.2058 104.567 20.8382C104.567 20.5257 104.912 20.3002 105.431 20.3453L111.9 20.7029C112.419 20.748 112.677 20.7931 112.677 20.9251V21.1474C112.677 27.6736 107.932 32.0094 100.776 32.0094C93.62 32.0094 88.8751 27.4063 88.8751 20.4742Z" fill="white"/>
<path d="M114.144 30.8013V1.20783C114.144 0.669882 114.445 0.357422 114.964 0.357422H121.433C121.952 0.357422 122.254 0.669882 122.254 1.20783V30.8013C122.254 31.3393 121.952 31.6517 121.433 31.6517H114.964C114.445 31.6517 114.144 31.3393 114.144 30.8013Z" fill="white"/>
<path d="M124.625 30.8016V1.20812C124.625 0.670173 124.926 0.357713 125.445 0.357713H131.654C132.086 0.357713 132.431 0.538103 132.645 0.937536L141.14 15.7359C141.314 16.0032 141.572 15.9582 141.572 15.6006L141.529 1.2049C141.529 0.625076 141.83 0.354492 142.349 0.354492H148.818C149.337 0.354492 149.639 0.666952 149.639 1.2049V30.8016C149.639 31.3395 149.337 31.652 148.818 31.652H142.61C142.178 31.652 141.833 31.4716 141.619 31.0722L133.08 16.0065C132.909 15.694 132.648 15.7391 132.648 16.0967L132.735 30.8048C132.735 31.3846 132.434 31.6552 131.915 31.6552H125.445C124.926 31.6552 124.625 31.3428 124.625 30.8048V30.8016Z" fill="white"/>
<path d="M171.368 30.9366L170.504 27.7186C170.461 27.5382 170.29 27.4061 170.116 27.4061H161.145C160.971 27.4061 160.8 27.5414 160.757 27.7186L159.893 30.9366C159.762 31.4294 159.461 31.6517 158.986 31.6517H152C151.441 31.6517 151.137 31.2942 151.311 30.6692L160.288 1.07254C160.418 0.624784 160.72 0.357422 161.195 0.357422H170.079C170.554 0.357422 170.856 0.624784 170.986 1.07254L179.957 30.666C180.131 31.2909 179.826 31.6485 179.267 31.6485H172.282C171.806 31.6485 171.505 31.4262 171.378 30.9334L171.368 30.9366ZM162.96 20.9669H168.308C168.522 20.9669 168.652 20.7865 168.609 20.5642L165.85 10.2369C165.763 9.92449 165.505 9.92449 165.418 10.2369L162.658 20.5642C162.615 20.7865 162.745 20.9669 162.96 20.9669Z" fill="white"/>
<path d="M37.0212 43.3129L37.4065 45.4647L46.9801 43.7413C47.0454 43.7284 47.092 43.6705 47.092 43.6028C47.092 39.0705 44.8299 35.8203 40.3647 35.8203C36.3966 35.8203 33.0967 38.2813 33.0967 42.8555C33.0967 47.4296 36.3438 50.0002 41.0762 50.0002C43.1271 50.0002 45.4948 49.2464 46.4363 48.7375C46.4798 48.7117 46.5078 48.6666 46.5078 48.6118V46.8981C46.5078 46.7951 46.4053 46.7274 46.3152 46.7693C45.0256 47.3813 43.3756 47.8581 41.7381 47.8581C38.7085 47.8581 37.4687 46.415 37.4687 42.8136C37.4687 40.3075 37.972 37.9624 40.1751 37.9624C41.8779 37.9624 42.5988 39.9145 42.5988 42.2982L37.015 43.3129H37.0212Z" fill="white"/>
<path d="M31.0423 41.4222V49.5333C31.0423 49.6106 30.9802 49.675 30.9056 49.675H26.8164C26.7418 49.675 26.6797 49.6138 26.6797 49.5333V41.3481C26.6797 39.8631 26.3721 38.0045 23.9515 38.172C21.621 38.333 19.884 38.9934 19.884 38.9934L21.2233 37.3409V49.5301C21.2233 49.6074 21.1642 49.6718 21.0865 49.6718H16.9973C16.9227 49.6718 16.8606 49.6106 16.8606 49.5301V37.1605C16.8606 37.0929 16.9072 37.0317 16.9756 37.022C17.7244 36.8964 22.4009 36.1297 24.228 35.9622C28.6311 35.5563 31.033 37.444 31.033 41.4222" fill="white"/>
<path d="M0.233398 44.4889V37.0607C0.233398 36.9931 0.280008 36.9351 0.342154 36.9222L4.43137 36.0718C4.51527 36.0557 4.59295 36.1201 4.59295 36.2103V44.9592C4.59295 46.7953 5.28277 47.7391 7.32116 47.7391C9.62678 47.7391 11.3886 46.9177 11.3886 46.9177L10.0494 48.5702V36.9641C10.0494 36.8964 10.096 36.8384 10.1612 36.8256L14.2567 36.0621C14.3375 36.0492 14.412 36.1169 14.412 36.2006V48.7474C14.412 48.815 14.3654 48.8762 14.2971 48.8859C13.5482 49.0115 8.87171 49.7781 7.04461 49.9457C2.64156 50.3515 0.239613 48.4639 0.239613 44.4857" fill="white"/>
<path d="M64.7224 49.443L58.8869 42.6076L64.045 36.2939C64.1196 36.2037 64.0575 36.062 63.9425 36.062L62.134 36.0685C61.6338 36.0685 61.1614 36.31 60.8569 36.7191L56.0158 43.1745C55.3788 44.0249 55.416 45.2264 56.1028 46.035L58.7005 49.1016C59.0112 49.4656 59.4555 49.675 59.9247 49.675H64.6261C64.7442 49.675 64.8063 49.5332 64.7286 49.443" fill="white"/>
<path d="M47.7623 36.2939L53.5979 43.1294L48.4397 49.443C48.3651 49.5332 48.4273 49.675 48.5423 49.675L50.3507 49.6685C50.851 49.6685 51.3233 49.4269 51.6278 49.0178L56.469 42.5625C57.106 41.7121 57.0687 40.5105 56.382 39.702L53.7843 36.6354C53.4736 36.2714 53.0292 36.062 52.56 36.062H47.8587C47.7406 36.062 47.6784 36.2037 47.7561 36.2939" fill="#97E700"/>
</g>
<defs>
<clipPath id="clip0_1_577">
<rect width="180" height="50" fill="white"/>
</clipPath>
</defs>
</svg>
